<svg xmlns="http://www.w3.org/2000/svg"  viewBox="0 0 64 64" width="512px" height="512px"><path fill="#faefde" d="M44,9c-4-5-14-5-14-5l-3-1l-6,4l3,1c-4,3-3,5-3,5c1-2,4-2,4-2l2,22l1,4l-1,3l1,2v8.628V51l2,1l2,2V30	c12-2,12-9,12-9l2-1v-5l2-2L44,9z M32,26V9c0,0,8-1,9,5S32,26,32,26z"/><path fill="#8d6c9f" d="M19,27h-2c-0.553,0-1,0.447-1,1s0.447,1,1,1h2c0.553,0,1-0.447,1-1S19.553,27,19,27z"/><path fill="#8d6c9f" d="M19,22h-2c-0.553,0-1,0.447-1,1s0.447,1,1,1h2c0.553,0,1-0.447,1-1S19.553,22,19,22z"/><path fill="#8d6c9f" d="M19,17h-2c-0.553,0-1,0.447-1,1s0.447,1,1,1h2c0.553,0,1-0.447,1-1S19.553,17,19,17z"/><path fill="#8d6c9f" d="M29,8c-0.553,0-1,0.448-1,1v4c0,0.552,0.447,1,1,1s1-0.448,1-1V9C30,8.448,29.553,8,29,8z"/><path fill="#8d6c9f" d="M31.858,8.01C31.366,8.081,31,8.502,31,9v17c0,0.356,0.189,0.686,0.498,0.865 C31.653,26.955,31.826,27,32,27c0.171,0,0.343-0.044,0.496-0.132c7.687-4.393,11.64-10.833,9.398-15.315 C39.598,6.959,32.174,7.964,31.858,8.01z M33,24.214V9.915c1.786-0.099,5.825-0.028,7.105,2.533 C41.666,15.567,38.586,20.538,33,24.214z"/><path fill="#8d6c9f" d="M48.8,12.4l-3-4c-0.057-0.076-0.124-0.143-0.2-0.2c-0.337-0.252-8.243-6.11-15.502-5.222 l-2.781-0.927c-0.271-0.09-0.565-0.061-0.812,0.081l-7,4c-0.354,0.203-0.551,0.6-0.494,1.005c0.056,0.404,0.352,0.734,0.748,0.833 l1.852,0.463C19.043,10.766,19,13.844,19,14c0,0.44,0.288,0.83,0.71,0.957c0.421,0.128,0.878-0.036,1.122-0.402 c1.043-1.564,2.384-2.171,3.26-2.406l1.448,17.374c-1.303-0.176-2.214-0.468-2.226-0.472c-0.519-0.172-1.09,0.11-1.263,0.635 c-0.174,0.523,0.108,1.089,0.632,1.263c0.059,0.019,1.294,0.425,3.027,0.612l0.294,3.523c0.006,0.079,0.022,0.157,0.048,0.233 l0.868,2.606l-0.814,1.63c-0.118,0.237-0.138,0.512-0.054,0.764L27,43.162V52c0,0.553,0.447,1,1,1s1-0.447,1-1v3 c0,0.553,0.447,1,1,1s1-0.447,1-1v7c0,0.553,0.447,1,1,1s1-0.447,1-1V30.99c2.669-0.299,9.919-1.801,11.863-9.304l1.584-0.792 C46.786,20.725,47,20.379,47,20v-1.877l0.903-3.612l0.804-0.804C49.059,13.355,49.099,12.798,48.8,12.4z M46.293,13.293 c-0.128,0.128-0.219,0.289-0.263,0.464l-1,4C45.01,17.837,45,17.918,45,18v1.382l-1.447,0.724c-0.27,0.135-0.464,0.384-0.529,0.678 c-0.732,3.294-2.634,5.263-4.655,6.458c0.557-0.52,1.062-1.084,1.464-1.687c0.307-0.459,0.183-1.081-0.277-1.387 c-0.462-0.308-1.081-0.183-1.387,0.277c-1.805,2.707-6.503,4.675-6.55,4.694c-0.003,0.001-0.004,0.003-0.007,0.005 c-0.101,0.043-0.188,0.109-0.27,0.181c-0.072,0.064-0.126,0.14-0.176,0.221c-0.028,0.045-0.067,0.083-0.088,0.133 c-0.05,0.12-0.076,0.249-0.077,0.381c0,0.001-0.001,0.003-0.001,0.004V51c0-0.553-0.447-1-1-1s-1,0.447-1,1v-8 c0-0.107-0.018-0.214-0.052-0.316l-0.868-2.606l0.814-1.63c0.118-0.237,0.138-0.512,0.054-0.764l-0.962-2.886l-1.99-23.881 C25.953,10.398,25.521,10,25,10c-0.086,0-1.332,0.014-2.805,0.744c0.506-0.675,1.227-1.336,2.252-1.849 c0.012-0.006,0.019-0.017,0.031-0.024c0.06-0.033,0.108-0.081,0.161-0.126c0.048-0.041,0.1-0.076,0.138-0.124 c0.034-0.042,0.054-0.094,0.081-0.143c0.037-0.066,0.076-0.13,0.097-0.203c0.004-0.012,0.013-0.02,0.016-0.033 c0.011-0.046,0.001-0.09,0.006-0.135c0.008-0.073,0.018-0.143,0.01-0.216c-0.008-0.071-0.032-0.135-0.055-0.202 c-0.015-0.045-0.015-0.093-0.037-0.136c-0.006-0.012-0.017-0.018-0.023-0.03c-0.035-0.064-0.085-0.116-0.134-0.171 c-0.038-0.043-0.07-0.092-0.114-0.127c-0.047-0.038-0.103-0.06-0.157-0.089c-0.062-0.034-0.121-0.07-0.189-0.09 c-0.013-0.004-0.022-0.013-0.035-0.017l-1.585-0.396l4.451-2.543l2.575,0.859c0.146,0.049,0.305,0.064,0.458,0.041 c6.073-0.863,13.182,4.038,14.148,4.73l2.39,3.186L46.293,13.293z"/></svg>